<svg xmlns="http://www.w3.org/2000/svg" viewBox="0 0 100 100" width="100" height="100" version="1.1">
  <title>HELIOS Minimalist Logo</title>
  <desc>A scalable, code-based minimalist logo representing an illuminating synthetic log generator. Features a central ring containing the prompt ">H" surrounded by eight radiating data blocks.</desc>
  <g fill="#7c3aed" fill-rule="evenodd" stroke="none">
    <path d="M50,18 C67.673112,18 82,32.326888 82,50 C82,67.673112 67.673112,82 50,82 C32.326888,82 18,67.673112 18,50 C18,32.326888 32.326888,18 50,18 Z M50,28 C62.1502645,28 72,37.8497355 72,50 C72,62.1502645 62.1502645,72 50,72 C37.8497355,72 28,62.1502645 28,50 C28,37.8497355 37.8497355,28 50,28 Z" id="Central-Ring"/>
    <g id="Prompt-Text">
      <polygon points="33 41 42 50 33 59 37 59 46 50 37 41"/>
      <rect x="50" y="40" width="5" height="20"/>
      <rect x="60" y="40" width="5" height="20"/>
      <rect x="50" y="47.5" width="15" height="5"/>
    </g>
    <g id="Rays">
      <!-- Cardinal rays -->
      <rect x="47" y="2" width="6" height="11" rx="3"/>
      <rect x="47" y="87" width="6" height="11" rx="3"/>
      <rect x="87" y="47" width="11" height="6" rx="3"/>
      <rect x="2" y="47" width="11" height="6" rx="3"/>
      <!-- Diagonal rays (45° rotated capsules as paths) -->
      <path d="M81.9,8.2 L89.7,16 C91.4,17.7 91.4,20.4 89.7,22.1 L89.7,22.1 C88,23.8 85.3,23.8 83.6,22.1 L75.8,14.3 C74.1,12.6 74.1,9.9 75.8,8.2 L75.8,8.2 C77.5,6.5 80.2,6.5 81.9,8.2 Z"/>
      <path d="M18.1,91.8 L10.3,84 C8.6,82.3 8.6,79.6 10.3,77.9 L10.3,77.9 C12,76.2 14.7,76.2 16.4,77.9 L24.2,85.7 C25.9,87.4 25.9,90.1 24.2,91.8 L24.2,91.8 C22.5,93.5 19.8,93.5 18.1,91.8 Z"/>
      <path d="M77.9,81.9 L85.7,89.7 C87.4,91.4 90.1,91.4 91.8,89.7 L91.8,89.7 C93.5,88 93.5,85.3 91.8,83.6 L84,75.8 C82.3,74.1 79.6,74.1 77.9,75.8 L77.9,75.8 C76.2,77.5 76.2,80.2 77.9,81.9 Z"/>
      <path d="M22.1,18.1 L14.3,10.3 C12.6,8.6 9.9,8.6 8.2,10.3 L8.2,10.3 C6.5,12 6.5,14.7 8.2,16.4 L16,24.2 C17.7,25.9 20.4,25.9 22.1,24.2 L22.1,24.2 C23.8,22.5 23.8,19.8 22.1,18.1 Z"/>
    </g>
  </g>
</svg>
